<svg width="24" height="24" viewBox="0 0 24 24" fill="none" xmlns="http://www.w3.org/2000/svg">
<path d="M5.26357 2H18.7364C19.602 2 20.4321 2.34384 21.0441 2.95588C21.6562 3.56792 22 4.39802 22 5.26357V18.7364C22 19.602 21.6562 20.4321 21.0441 21.0441C20.4321 21.6562 19.602 22 18.7364 22H5.26286C4.39749 22 3.56757 21.6562 2.95567 21.0443C2.34376 20.4324 2 19.6025 2 18.7371V5.26357C2 4.39802 2.34384 3.56792 2.95588 2.95588C3.56792 2.34384 4.39802 2 5.26357 2Z" fill="#005FF9"/>
<path d="M13.8049 12C13.8049 12.3569 13.6991 12.7058 13.5008 13.0026C13.3026 13.2994 13.0208 13.5307 12.6911 13.6673C12.3614 13.8039 11.9987 13.8396 11.6487 13.77C11.2987 13.7004 10.9772 13.5285 10.7249 13.2761C10.4726 13.0237 10.3007 12.7021 10.2311 12.3521C10.1615 12.002 10.1972 11.6391 10.3338 11.3094C10.4703 10.9796 10.7016 10.6978 10.9983 10.4995C11.295 10.3012 11.6438 10.1953 12.0007 10.1953C12.479 10.1959 12.9376 10.3862 13.2759 10.7245C13.6141 11.0628 13.8044 11.5215 13.8049 12ZM12.0007 6C11.0614 5.99967 10.1352 6.21995 9.29667 6.64311C8.4581 7.06626 7.7306 7.68047 7.17273 8.43627C6.61486 9.19207 6.24223 10.0683 6.08483 10.9945C5.92743 11.9207 5.98967 12.8709 6.26653 13.7686C6.54339 14.6663 7.02714 15.4865 7.67882 16.163C8.3305 16.8396 9.1319 17.3536 10.0185 17.6637C10.9051 17.9738 11.8521 18.0713 12.7833 17.9484C13.7144 17.8255 14.6037 17.4857 15.3796 16.9561L15.3967 16.9445L14.5888 16.0048L14.5751 16.0137C13.6444 16.6103 12.5355 16.8654 11.4377 16.7356C10.3399 16.6057 9.32112 16.0989 8.55518 15.3016C7.78924 14.5043 7.32357 13.4659 7.2376 12.3635C7.15163 11.2611 7.45069 10.1631 8.08377 9.25662C8.71684 8.35017 9.64471 7.69148 10.7091 7.39292C11.7735 7.09435 12.9085 7.1744 13.9205 7.61942C14.9325 8.06443 15.7587 8.84684 16.2584 9.83318C16.758 10.8195 16.9001 11.9487 16.6603 13.0281C16.6336 13.2485 16.5255 13.451 16.3573 13.596C16.1891 13.7409 15.9729 13.8177 15.751 13.8115C15.6494 13.8045 15.5502 13.7774 15.4592 13.7317C15.3682 13.686 15.2872 13.6226 15.2208 13.5453C15.1545 13.468 15.1042 13.3783 15.0729 13.2814C15.0416 13.1845 15.0298 13.0823 15.0383 12.9808V12C15.0394 11.2962 14.7964 10.6138 14.3506 10.0693C13.9048 9.52477 13.2839 9.15185 12.5938 9.01417C11.9038 8.87648 11.1874 8.98257 10.5668 9.31431C9.94625 9.64606 9.46001 10.1829 9.19105 10.8333C8.9221 11.4836 8.8871 12.2072 9.09202 12.8805C9.29695 13.5538 9.7291 14.1351 10.3147 14.5252C10.9004 14.9153 11.6032 15.0901 12.3033 15.0197C13.0034 14.9493 13.6574 14.6381 14.1537 14.1391C14.3168 14.3945 14.5372 14.6085 14.7973 14.7639C15.0574 14.9194 15.3501 15.0122 15.6523 15.035C15.7057 15.0391 15.7599 15.0418 15.814 15.0418C16.2536 15.0406 16.6808 14.8963 17.031 14.6306C17.4026 14.34 17.674 13.9405 17.8074 13.488C17.8314 13.4119 17.8759 13.2365 17.8759 13.2351V13.2289C17.9649 12.8255 18.0063 12.4131 17.9992 12C17.9974 10.4093 17.3648 8.88419 16.2403 7.75936C15.1157 6.63454 13.591 6.00181 12.0007 6Z" fill="#FF9E00"/>
</svg>
