<svg width="24" height="24" viewBox="0 0 24 24" fill="none" xmlns="http://www.w3.org/2000/svg">
<rect x="5" y="7" width="15" height="10" fill="white"/>
<path fill-rule="evenodd" clip-rule="evenodd" d="M21.9939 15.0742V8.95057C21.9939 3.35726 20.6733 2.02651 15.0783 2.02651C1.39616 1.93872 1.93532 1.3823 2.02711 15.0639C2.02711 20.6572 3.34775 21.9879 8.94272 21.9879H13.5867C19.5312 22.0905 22.1434 21.6818 21.9939 15.0742ZM18.1463 16.27H16.6903C16.1392 16.27 15.9729 15.8228 14.9849 14.8352C14.1217 14.0034 13.7577 13.8994 13.5394 13.8994C13.2377 13.8994 13.1545 13.9826 13.1545 14.3984V15.7083C13.1545 16.0618 13.0402 16.2698 12.1145 16.2698C10.5754 16.2698 8.88041 15.334 7.67387 13.6083C5.86439 11.082 5.37555 9.16888 5.37555 8.78425C5.37555 8.56593 5.4587 8.36825 5.87471 8.36825H7.33071C7.70503 8.36825 7.84019 8.53456 7.98587 8.9192C8.58272 10.8758 10.6272 14.1317 10.6585 12.2565V10.1148C10.5962 9.13751 10.0762 9.05436 10.0762 8.70088C10.0762 8.54488 10.2219 8.36825 10.4505 8.36825H12.7383C13.0503 8.36825 13.1543 8.52425 13.1543 8.89835V11.7887C13.1939 12.4817 13.6251 12.2091 14.0592 11.7575C15.1095 10.5931 15.8478 8.78404 15.8478 8.78404C15.9415 8.56572 16.1078 8.36825 16.4821 8.36825H17.9381C18.375 8.36825 18.4685 8.58656 18.375 8.89857C18.1981 9.75099 16.4198 12.2462 16.4198 12.2567C16.2638 12.4959 16.2015 12.6207 16.4198 12.9013C16.839 13.4237 19.8933 16.182 18.1463 16.27Z" fill="#345E90"/>
</svg>
