<svg width="24" height="24" viewBox="0 0 24 24" fill="none" xmlns="http://www.w3.org/2000/svg">
<path d="M2 12C2 6.477 6.476 2 12 2C17.522 2 22 6.477 22 12C22 17.523 17.522 22 12 22C6.476 22 2 17.523 2 12Z" fill="#FC3F1D"/>
<path d="M13.6435 7.62236H12.5905C10.6602 7.62236 9.64485 8.4891 9.64485 9.76698C9.64485 11.2115 10.3468 11.8884 11.7883 12.7561L12.9791 13.4673L9.5571 18H7L10.071 13.9451C8.30476 12.8228 7.31337 11.7328 7.31337 9.88922C7.31337 7.57791 9.13092 6 12.578 6H16V17.9889H13.6435V7.62236Z" fill="white"/>
</svg>
